<svg version="1" xmlns="http://www.w3.org/2000/svg" width="346.667" height="346.667" viewBox="0 0 260.000000 260.000000"><path d="M128 6.4c0 8.3-1.2 9.6-8.9 9.6-6.7 0-9.1 1.8-9.1 6.8V26h41v-3.8c0-5.2-1.4-6.2-8.5-6.2-3.3 0-6.6-.4-7.4-.9-.8-.5-1.5-3.5-1.9-8-.4-6.7-.6-7.1-2.8-7.1-2.3 0-2.4.3-2.4 6.4zM107.2 32.6c-1.9 1.3-2.2 2.4-2.2 9.3 0 4.6.5 8.2 1.2 8.9.9.9 7.7 1.2 24.4 1.2 22.9 0 23.3 0 24.8-2.2 1-1.4 1.6-4.4 1.6-8.1 0-4.8-.4-6.2-2.5-8.2-2.4-2.5-2.4-2.5-23.7-2.5-17.7 0-21.7.3-23.6 1.6zM112.7 63.7c-.3.5-1.1 4.4-1.7 8.8-2.2 13.9-5 29.7-6.5 37-.9 3.8-1.6 7.7-1.8 8.5-.2 1.3 3.6 1.5 28.2 1.8l28.3.2-.5-2.7c-.3-1.6-1.3-6.2-2.2-10.3-1-4.1-2.1-9.8-2.5-12.5-2.6-16.8-3.3-21.5-4.2-26.3l-.9-5.2H131c-9.8 0-18.1.3-18.3.7zM88.5 133c-1.9 2.1-1.7 3.8 2 14l1.3 3.5 38.8.3 38.9.2 2.3-7.6c2-6.5 2.2-8.1 1.1-10.1l-1.2-2.3H131c-39.4 0-40.7.1-42.5 2zM85.5 165.6c-.8 2-1.5 3.8-1.5 4.1 0 .2-1.3 3.1-2.9 6.3-1.6 3.2-2.7 6.1-2.3 6.4.3.3 7.6.6 16.3.6 14.1 0 15.9-.2 16.8-1.8 1.9-3.6 6.1-17.4 5.6-18.3-.4-.5-7.3-.9-15.5-.9H87l-1.5 3.6zM143.6 162.9c-.6.9 3.3 14.3 5.3 17.9 1.1 2.1 1.7 2.2 17.1 2.2 8.7 0 16.1-.3 16.3-.8.3-.4-.8-3.4-2.4-6.7-1.5-3.3-3.5-7.7-4.4-9.8L174 162h-14.9c-8.3 0-15.2.4-15.5.9zM71.8 194.7c-.8 1-4.6 7.2-8.3 13.8-3.8 6.6-8.2 14.2-10 17-1.7 2.7-3.4 5.7-3.9 6.5-.4.8-1.2 2.4-1.9 3.5-10.9 18.2-11.8 20.3-9.9 23.3.7.9 6.4 1.2 25.2 1l24.5-.3.6-2.5c.4-1.4 1.5-5.7 2.4-9.5 2.4-10.1 5.8-16.2 12.6-22.7 8.3-8 14.4-10.2 27.4-10.2 8.1 0 11.1.4 15.8 2.3 6.2 2.4 14.6 9.5 18.3 15.2 2.9 4.7 7.4 17.7 7.4 21.5 0 6.5-.1 6.5 27 6.2l24.5-.3.3-2.7c.3-2.7-7-16.6-16.5-31.6-1.8-2.9-3.3-5.4-3.3-5.7 0-.4-5-9-9-15.5-.5-.8-1.9-3.3-3.1-5.5-1.1-2.2-2.6-4.3-3.3-4.7-.6-.4-26.8-.8-58.2-.8-53.1 0-57.2.1-58.6 1.7z"/></svg>